<svg xmlns="http://www.w3.org/2000/svg" version="1.1" xmlns:xlink="http://www.w3.org/1999/xlink" xmlns:svgjs="http://svgjs.dev/svgjs" width="765" height="625" viewBox="0 0 300 300" class="svg-animations " style="background: rgb(0, 173, 216);"><svg viewBox="0 0 163.01300048828125 139" width="150" height="150" fill="#ffffff" x="75" y="44.154998779296875"><svg width="163" height="134" viewBox="0 0 163 134" xmlns="http://www.w3.org/2000/svg">
	<g clip-path="url(#clip0)">
	<path d="M79.703 44.9371H140.585C144.773 44.9371 148.192 41.5127 148.192 37.3167C148.192 33.1207 144.773 29.6963 140.585 29.6963H79.703C75.5145 29.6963 72.0962 33.1207 72.0962 37.3167C72.0962 41.5127 75.5145 44.9371 79.703 44.9371Z"></path>
	<path d="M96.5243 15.2408H125.763C129.951 15.2408 133.37 11.8164 133.37 7.6204C133.37 3.42444 129.938 0 125.763 0H96.5243C92.3358 0 88.9175 3.42444 88.9175 7.6204C88.9175 11.8164 92.3358 15.2408 96.5243 15.2408Z"></path>
	<path d="M37.2506 15.2408H66.489C70.6775 15.2408 74.0959 11.8164 74.0959 7.6204C74.0959 3.42444 70.664 0 66.489 0H37.2506C33.0622 0 29.6438 3.42444 29.6438 7.6204C29.6438 11.8164 33.0622 15.2408 37.2506 15.2408Z"></path>
	<path d="M48.8432 44.5182H55.6123C59.8008 44.5182 63.2192 41.0937 63.2192 36.8977C63.2192 32.7018 59.8008 29.2773 55.6123 29.2773H48.8432C44.6547 29.2773 41.2363 32.7018 41.2363 36.8977C41.2363 41.0937 44.6547 44.5182 48.8432 44.5182Z"></path>
	<path d="M155.393 59.3799H94.5248C90.3363 59.3799 86.918 62.8043 86.918 67.0003C86.918 71.1962 90.3363 74.6207 94.5248 74.6207H155.407C159.595 74.6207 163.013 71.1962 163.013 67.0003C163 62.8043 159.582 59.3799 155.393 59.3799Z"></path>
	<path d="M78.0277 66.5804C78.0277 62.3844 74.6093 58.96 70.4208 58.96H52.059C47.8705 58.96 44.4521 62.3844 44.4521 66.5804C44.4521 70.7763 47.8705 74.2008 52.059 74.2008H70.4208C74.6093 74.2008 78.0277 70.7763 78.0277 66.5804Z"></path>
	<path d="M33.5755 66.5804C33.5755 62.3844 30.1572 58.96 25.9687 58.96H7.60685C3.41835 58.96 0 62.3844 0 66.5804C0 70.7763 3.41835 74.2008 7.60685 74.2008H25.9687C30.1572 74.2008 33.5755 70.7763 33.5755 66.5804Z"></path>
	<path d="M140.571 89.0762H79.703C75.5145 89.0762 72.0962 92.5006 72.0962 96.6966C72.0962 100.893 75.5145 104.317 79.703 104.317H140.585C144.773 104.317 148.192 100.893 148.192 96.6966C148.192 92.5006 144.76 89.0762 140.571 89.0762Z"></path>
	<path d="M125.763 118.759H96.5243C92.3358 118.759 88.9175 122.183 88.9175 126.379C88.9175 130.575 92.3358 134 96.5243 134H125.763C129.951 134 133.37 130.575 133.37 126.379C133.37 122.183 129.938 118.759 125.763 118.759Z"></path>
	<path d="M66.489 118.759H37.2506C33.0622 118.759 29.6438 122.183 29.6438 126.379C29.6438 130.575 33.0622 134 37.2506 134H66.489C70.6775 134 74.0959 130.575 74.0959 126.379C74.0959 122.183 70.664 118.759 66.489 118.759Z"></path>
	<path d="M48.8432 104.737H55.6123C59.8008 104.737 63.2192 101.312 63.2192 97.1165C63.2192 92.9205 59.8008 89.4961 55.6123 89.4961H48.8432C44.6547 89.4961 41.2363 92.9205 41.2363 97.1165C41.2363 101.312 44.6547 104.737 48.8432 104.737Z"></path>
	</g>
	</svg></svg><svg fill="#ffffff" x="89.54499816894531" y="194.15499877929688"><path d="M12.55 49.86L12.55 49.86Q9.81 49.86 7.84 49.58Q5.88 49.30 4.32 48.59Q2.77 47.88 1.21 46.59L1.21 46.59L4.40 41.13Q7.86 43.18 11.31 43.18L11.31 43.18Q13.58 43.18 14.69 41.73Q15.79 40.28 15.79 37.96L15.79 37.96L15.79 34.09Q14.66 38.15 9.76 38.15L9.76 38.15Q6.93 38.15 5.19 36.80Q3.45 35.46 2.66 33.17Q1.87 30.87 1.87 28.05L1.87 28.05L1.87 13.84Q1.87 10.65 2.56 8.21Q3.24 5.77 4.96 4.40Q6.67 3.03 9.76 3.03L9.76 3.03Q12.37 3.03 13.83 4.35Q15.29 5.66 15.79 7.91L15.79 7.91L15.79 3.45L25.42 3.45L25.42 37.36Q25.42 44.08 22.32 46.97Q19.22 49.86 12.55 49.86ZM13.58 31.03L13.58 31.03Q15.79 31.03 15.79 27.02L15.79 27.02L15.79 13.57Q15.79 12.49 15.17 11.36Q14.55 10.23 13.47 10.23L13.47 10.23Q12.10 10.23 11.76 11.24Q11.42 12.26 11.42 13.57L11.42 13.57L11.42 27.02Q11.42 28.45 11.77 29.74Q12.13 31.03 13.58 31.03ZM38.65 43L29.27 43L29.27-3.41L43.51-3.41Q47.07-3.41 48.88-1.78Q50.70-0.16 51.32 2.75Q51.94 5.66 51.94 9.59L51.94 9.59Q51.94 13.39 50.98 15.66Q50.02 17.92 47.36 18.79L47.36 18.79Q49.54 19.24 50.43 20.97Q51.31 22.70 51.31 25.44L51.31 25.44L51.31 43L42.16 43L42.16 24.83Q42.16 22.80 41.33 22.31Q40.50 21.83 38.65 21.83L38.65 21.83L38.65 43ZM38.71 5.19L38.71 13.79L40.95 13.79Q42.87 13.79 42.87 9.59L42.87 9.59Q42.87 6.88 42.45 6.03Q42.03 5.19 40.87 5.19L40.87 5.19L38.71 5.19ZM63.39 43L55.00 43L55.00-3.41L69.13-3.41L73.04 24.89L76.91-3.41L91.18-3.41L91.18 43L82.69 43L82.69 9.57L77.36 43L69.03 43L63.39 9.57L63.39 43ZM106.31 43.42L106.31 43.42Q99.96 43.42 97.15 40.26Q94.34 37.09 94.34 30.19L94.34 30.19L94.34 25.65L103.52 25.65L103.52 31.45Q103.52 33.06 104.01 33.97Q104.49 34.88 105.71 34.88L105.71 34.88Q106.97 34.88 107.46 34.14Q107.95 33.40 107.95 31.71L107.95 31.71Q107.95 29.58 107.53 28.14Q107.10 26.71 106.06 25.40Q105.02 24.09 103.17 22.35L103.17 22.35L99.01 18.40Q94.34 14.00 94.34 8.33L94.34 8.33Q94.34 2.39 97.10-0.72Q99.85-3.83 105.07-3.83L105.07-3.83Q111.45-3.83 114.13-0.43Q116.81 2.97 116.81 9.91L116.81 9.91L107.37 9.91L107.37 6.72Q107.37 5.77 106.83 5.24Q106.29 4.71 105.36 4.71L105.36 4.71Q104.26 4.71 103.74 5.33Q103.23 5.95 103.23 6.93L103.23 6.93Q103.23 7.91 103.75 9.04Q104.28 10.17 105.84 11.65L105.84 11.65L111.19 16.79Q112.80 18.32 114.14 20.02Q115.49 21.72 116.31 23.98Q117.12 26.23 117.12 29.47L117.12 29.47Q117.12 36.01 114.71 39.72Q112.30 43.42 106.31 43.42Z"></path></svg><text fill="#ffffff" font-family="Arial" font-size="16px" x="150" y="255.84500122070312"><tspan dy="0" x="150"></tspan></text></svg>